<svg xmlns="http://www.w3.org/2000/svg" viewBox="0 0 500 500"><g id="freepik--Grass--inject-23"><g id="freepik--Field--inject-23"><ellipse id="freepik--Floor--inject-23" cx="250.07" cy="342.24" rx="240.93" ry="139.1" style="fill:#BA68C8"></ellipse><path d="M44.53,414.85c1.51,1.42,3,2.83,4.65,4.22L383.29,226.31q-3.78-1.45-7.62-2.8Z" style="fill:#fafafa"></path></g></g><g id="freepik--Shadows--inject-23"><path d="M213.45,328.42c12.2,7,12.2,18.46,0,25.51s-32,7-44.18,0-12.2-18.47,0-25.51S201.25,321.38,213.45,328.42Z" style="opacity:0.1"></path><ellipse cx="411.31" cy="376.74" rx="42.58" ry="24.59" style="opacity:0.1"></ellipse></g><g id="freepik--Clouds--inject-23"><g id="freepik--clouds--inject-23"><path d="M381.86,71l5,2.9c0-.22,0-.45,0-.66V71.81c0-2.58,1.82-3.63,4.06-2.34a7.85,7.85,0,0,1,2.42,2.33c.36-3.26,2.91-4.47,6-2.68a13.4,13.4,0,0,1,6.07,10.51v2.18a5.74,5.74,0,0,1-.51,2.52l4.17,2.4a5,5,0,0,1,2.25,3.9c0,1.44-1,2-2.25,1.3l-27.2-15.7a5,5,0,0,1-2.25-3.9C379.61,70.9,380.62,70.32,381.86,71Z" style="fill:#ebebeb"></path><path d="M77.26,84.8l-5,2.9a4.87,4.87,0,0,0,0-.66V85.58c0-2.58-1.81-3.63-4-2.34a8,8,0,0,0-2.42,2.33c-.37-3.26-2.92-4.47-6-2.68A13.43,13.43,0,0,0,53.72,93.4v2.18a5.7,5.7,0,0,0,.52,2.52l-4.17,2.4a5,5,0,0,0-2.25,3.9c0,1.44,1,2,2.25,1.3L77.26,90a5,5,0,0,0,2.25-3.9C79.51,84.67,78.5,84.09,77.26,84.8Z" style="fill:#ebebeb"></path><path d="M415,57.7l2.76,1.07v-6.1c0-4.83,3.86-6,8.05-3.57h0a16.75,16.75,0,0,1,7.58,13.12v.89a4.05,4.05,0,0,1,3.51.54h0a12,12,0,0,1,5.46,9.45v.4l3.86,2.23A8,8,0,0,1,449.85,82c0,2.29-1.61,3.22-3.59,2.08L415,66a7.92,7.92,0,0,1-3.6-6.22C411.44,57.49,413.05,56.56,415,57.7Z" style="fill:#ebebeb"></path></g></g><g id="freepik--Goal--inject-23"><g id="freepik--goal--inject-23"><path d="M18.6,343.81a.52.52,0,0,1-.44-.25.51.51,0,0,1,.19-.69l228.71-132a.51.51,0,0,1,.5.88l-228.71,132A.47.47,0,0,1,18.6,343.81Z" style="fill:#fafafa"></path><path d="M21.8,328.37a.51.51,0,0,1-.44-.26.5.5,0,0,1,.19-.68l228.71-132a.49.49,0,0,1,.68.19.49.49,0,0,1-.18.68L22.05,328.3A.59.59,0,0,1,21.8,328.37Z" style="fill:#fafafa"></path><path d="M25,312.92a.51.51,0,0,1-.44-.25.49.49,0,0,1,.19-.68l228.71-132a.49.49,0,0,1,.68.18.51.51,0,0,1-.18.69L25.25,312.86A.57.57,0,0,1,25,312.92Z" style="fill:#fafafa"></path><path d="M28.2,297.48a.5.5,0,0,1-.25-.94l228.71-132a.49.49,0,0,1,.68.18.51.51,0,0,1-.18.69l-228.71,132A.47.47,0,0,1,28.2,297.48Z" style="fill:#fafafa"></path><path d="M31.4,282a.5.5,0,0,1-.25-.94l228.71-132a.49.49,0,0,1,.68.18.51.51,0,0,1-.18.69L31.65,282A.47.47,0,0,1,31.4,282Z" style="fill:#fafafa"></path><path d="M34.6,266.6a.51.51,0,0,1-.44-.25.51.51,0,0,1,.19-.69l228.71-132a.51.51,0,0,1,.68.19.49.49,0,0,1-.18.68l-228.71,132A.47.47,0,0,1,34.6,266.6Z" style="fill:#fafafa"></path><path d="M37.8,251.15a.51.51,0,0,1-.44-.25.5.5,0,0,1,.19-.68l228.71-132a.49.49,0,0,1,.68.19.49.49,0,0,1-.18.68L38.05,251.09A.57.57,0,0,1,37.8,251.15Z" style="fill:#fafafa"></path><path d="M41,235.71a.5.5,0,0,1-.25-.94l228.7-132a.5.5,0,0,1,.51.87L41.25,235.65A.57.57,0,0,1,41,235.71Z" style="fill:#fafafa"></path><path d="M230.09,225.4H230a.49.49,0,0,1-.39-.59l24.5-117.9a.52.52,0,0,1,.6-.39.51.51,0,0,1,.39.6L230.58,225A.5.5,0,0,1,230.09,225.4Z" style="fill:#fafafa"></path><path d="M217.84,232.48h-.1a.5.5,0,0,1-.39-.6L241.85,114a.5.5,0,0,1,1,.2l-24.5,117.9A.51.51,0,0,1,217.84,232.48Z" style="fill:#fafafa"></path><path d="M205.59,239.55h-.11a.51.51,0,0,1-.39-.59l24.51-117.9a.5.5,0,0,1,1,.2l-24.5,117.9A.5.5,0,0,1,205.59,239.55Z" style="fill:#fafafa"></path><path d="M193.33,246.62h-.1a.49.49,0,0,1-.39-.59l24.51-117.9a.5.5,0,0,1,.59-.39.51.51,0,0,1,.39.6l-24.5,117.89A.5.5,0,0,1,193.33,246.62Z" style="fill:#fafafa"></path><path d="M181.08,253.7H181a.51.51,0,0,1-.39-.6l24.5-117.89a.51.51,0,0,1,1,.2L181.57,253.3A.49.49,0,0,1,181.08,253.7Z" style="fill:#fafafa"></path><path d="M168.83,260.77h-.1a.5.5,0,0,1-.39-.59l24.5-117.9a.51.51,0,0,1,1,.2l-24.51,117.9A.5.5,0,0,1,168.83,260.77Z" style="fill:#fafafa"></path><path d="M156.58,267.85h-.1a.52.52,0,0,1-.4-.6l24.51-117.9a.5.5,0,1,1,1,.21l-24.5,117.89A.51.51,0,0,1,156.58,267.85Z" style="fill:#fafafa"></path><path d="M144.33,274.92h-.11a.51.51,0,0,1-.39-.6l24.51-117.89a.5.5,0,0,1,1,.2l-24.5,117.9A.5.5,0,0,1,144.33,274.92Z" style="fill:#fafafa"></path><path d="M132.07,282H132a.49.49,0,0,1-.39-.59l24.5-117.9a.51.51,0,0,1,1,.21l-24.5,117.89A.5.5,0,0,1,132.07,282Z" style="fill:#fafafa"></path><path d="M119.82,289.07h-.1a.51.51,0,0,1-.39-.6l24.5-117.89a.51.51,0,1,1,1,.2l-24.51,117.9A.5.5,0,0,1,119.82,289.07Z" style="fill:#fafafa"></path><path d="M107.57,296.14h-.1a.5.5,0,0,1-.39-.59l24.5-117.9a.51.51,0,0,1,1,.2l-24.51,117.9A.5.5,0,0,1,107.57,296.14Z" style="fill:#fafafa"></path><path d="M95.32,303.21h-.1a.5.5,0,0,1-.4-.59l24.51-117.9a.51.51,0,0,1,.59-.39.5.5,0,0,1,.39.6L95.81,302.81A.5.5,0,0,1,95.32,303.21Z" style="fill:#fafafa"></path><path d="M95.32,251.34h-.11a.51.51,0,0,1-.39-.59l12.26-59a.49.49,0,0,1,.59-.39.49.49,0,0,1,.39.59L95.81,250.94A.5.5,0,0,1,95.32,251.34Z" style="fill:#fafafa"></path><path d="M264.93,226.65h-.06a.49.49,0,0,1-.44-.56L284.52,42.48a.5.5,0,1,1,1,.11L265.42,226.2A.49.49,0,0,1,264.93,226.65Z" style="fill:#fafafa"></path><path d="M279.1,234.83h0a.5.5,0,0,1-.46-.54l15-187.89a.5.5,0,0,1,1,.08l-15,187.89A.5.5,0,0,1,279.1,234.83Z" style="fill:#fafafa"></path><path d="M293.11,242.64h0a.49.49,0,0,1-.47-.53L302.74,50.59a.52.52,0,0,1,.53-.47.5.5,0,0,1,.48.53L293.61,242.17A.5.5,0,0,1,293.11,242.64Z" style="fill:#fafafa"></path><path d="M307.69,251.34h0a.52.52,0,0,1-.5-.51l4.66-196a.51.51,0,0,1,1,0l-4.66,196A.51.51,0,0,1,307.69,251.34Z" style="fill:#fafafa"></path><path d="M321.44,259.08a.5.5,0,0,1-.5-.5V59a.5.5,0,0,1,1,0v199.6A.5.5,0,0,1,321.44,259.08Z" style="fill:#fafafa"></path><path d="M321.44,254.56a.54.54,0,0,1-.25-.06l-74.13-42.8a.51.51,0,0,1-.19-.69.52.52,0,0,1,.69-.19l74.13,42.8a.51.51,0,0,1,.18.69A.5.5,0,0,1,321.44,254.56Z" style="fill:#fafafa"></path><path d="M321.44,236.83a.45.45,0,0,1-.25-.07l-70.93-40.51a.49.49,0,0,1-.19-.68.51.51,0,0,1,.69-.19l70.93,40.51a.51.51,0,0,1,.19.68A.51.51,0,0,1,321.44,236.83Z" style="fill:#fafafa"></path><path d="M321.44,219.09a.57.57,0,0,1-.25-.06l-67.73-38.22a.5.5,0,0,1,.49-.87l67.74,38.21a.52.52,0,0,1,.19.69A.51.51,0,0,1,321.44,219.09Z" style="fill:#fafafa"></path><path d="M321.44,201.36a.5.5,0,0,1-.24-.06l-64.54-35.93a.49.49,0,0,1-.19-.68.51.51,0,0,1,.68-.2l64.53,35.93a.5.5,0,0,1,.2.68A.49.49,0,0,1,321.44,201.36Z" style="fill:#fafafa"></path><path d="M321.44,183.62a.5.5,0,0,1-.24-.06l-61.33-33.63a.49.49,0,0,1-.2-.68.5.5,0,0,1,.68-.2l61.33,33.63a.51.51,0,0,1,.2.68A.49.49,0,0,1,321.44,183.62Z" style="fill:#fafafa"></path><path d="M321.44,165.89a.53.53,0,0,1-.24-.06l-58.13-31.34a.5.5,0,0,1-.21-.68.51.51,0,0,1,.69-.2l58.13,31.33a.52.52,0,0,1,.2.69A.51.51,0,0,1,321.44,165.89Z" style="fill:#fafafa"></path><path d="M321.44,148.15a.52.52,0,0,1-.24-.05l-54.93-29a.5.5,0,1,1,.47-.89l54.93,29.05a.5.5,0,0,1,.21.68A.49.49,0,0,1,321.44,148.15Z" style="fill:#fafafa"></path><path d="M321.44,130.42a.46.46,0,0,1-.23-.06l-51.74-26.75a.5.5,0,1,1,.47-.89l51.73,26.75a.5.5,0,0,1-.23.95Z" style="fill:#fafafa"></path><path d="M321.44,112.69a.49.49,0,0,1-.23-.06L272.68,88.17a.49.49,0,0,1-.22-.67.5.5,0,0,1,.67-.23l48.54,24.46a.51.51,0,0,1-.23,1Z" style="fill:#fafafa"></path><path d="M321.44,95a.54.54,0,0,1-.22,0L275.88,72.73a.51.51,0,0,1-.23-.67.51.51,0,0,1,.68-.23L321.66,94a.5.5,0,0,1,.23.67A.49.49,0,0,1,321.44,95Z" style="fill:#fafafa"></path><path d="M321.44,77.22a.5.5,0,0,1-.21,0L279.09,57.29a.5.5,0,0,1-.24-.67.51.51,0,0,1,.67-.24l42.13,19.88a.5.5,0,0,1,.24.67A.49.49,0,0,1,321.44,77.22Z" style="fill:#fafafa"></path><path d="M321.44,59.48a.52.52,0,0,1-.21,0L282.3,41.85a.5.5,0,0,1,.41-.91l38.94,17.58a.51.51,0,0,1,.25.67A.52.52,0,0,1,321.44,59.48Z" style="fill:#fafafa"></path><path d="M324,63.18a3.29,3.29,0,0,0-4.94-2.85l-.62.36h0L92.07,191.4a2,2,0,0,0-.85,1.87h0V389h0a2,2,0,0,0,1.2,1.66,6.38,6.38,0,0,0,5.77,0,2,2,0,0,0,1.2-1.66V196.6l216.47-125V259.28a2,2,0,0,0,1.2,1.67,6.38,6.38,0,0,0,5.77,0,2,2,0,0,0,1.2-1.67V63.18Z" style="fill:#BA68C8"></path><path d="M98.56,191.39,57.93,172.82h0a3.13,3.13,0,0,0-4.35,1.93L18,346.45a1.64,1.64,0,0,0,0,.23,1.84,1.84,0,0,0,.93,1.47,2.57,2.57,0,0,0,.37.21A6.07,6.07,0,0,0,22,349c2.09,0,3.82-.89,4-2,0,0,0,0,0,0L60.21,182.8l34.26,15.66Z" style="fill:#BA68C8"></path><path d="M322.06,60.18,283.49,42.55h0a3.14,3.14,0,0,0-4.35,1.94L243.51,216.18a1.64,1.64,0,0,0,0,.23,1.82,1.82,0,0,0,.94,1.47,2.57,2.57,0,0,0,.37.21,5.9,5.9,0,0,0,2.77.63c2.09,0,3.82-.9,4.05-2,0,0,0,0,0,0l34.14-164.1L320,68.19Z" style="fill:#BA68C8"></path><path d="M321.89,60.1l-38.4-17.55h0a3.14,3.14,0,0,0-4.35,1.94L270,88.69l-175,101-37-16.91h0a3.13,3.13,0,0,0-4.35,1.93L18,346.45a1.64,1.64,0,0,0,0,.23,1.84,1.84,0,0,0,.93,1.47,2.57,2.57,0,0,0,.37.21A6.07,6.07,0,0,0,22,349c2.09,0,3.82-.89,4-2,0,0,0,0,0,0L60.21,182.8l31,14.17V389h0a2,2,0,0,0,1.2,1.66,6.38,6.38,0,0,0,5.77,0,2,2,0,0,0,1.2-1.66V196.6L267.75,99.41,243.51,216.18a1.64,1.64,0,0,0,0,.23,1.82,1.82,0,0,0,.94,1.47,2.57,2.57,0,0,0,.37.21,5.9,5.9,0,0,0,2.77.63c2.09,0,3.82-.9,4.06-2v0L277.15,94l38.71-22.35V259.28a2,2,0,0,0,1.2,1.67,6.38,6.38,0,0,0,5.77,0,2,2,0,0,0,1.2-1.67V63.18h0A3.28,3.28,0,0,0,321.89,60.1Zm-36.12-7.56,26.14,11.94L279.38,83.26Z" style="fill:#fff;opacity:0.8"></path><polygon points="60.21 182.8 54.84 180.34 59.82 184.65 60.21 182.8" style="opacity:0.1"></polygon><polygon points="285.77 52.53 280.41 50.08 285.39 54.38 285.77 52.53" style="opacity:0.1"></polygon><path d="M56.31,175.08h-.05a.51.51,0,0,1-.45-.56l.06-.52.22-.13L283.83,42.39a.49.49,0,0,1,.68.18.51.51,0,0,1-.18.69L56.81,174.61v0A.5.5,0,0,1,56.31,175.08Z" style="fill:#fafafa"></path><path d="M65.44,179a.52.52,0,0,1-.44-.25.51.51,0,0,1,.19-.69L292.92,46.57a.5.5,0,1,1,.51.87L65.69,178.92A.47.47,0,0,1,65.44,179Z" style="fill:#fafafa"></path><path d="M74.54,183.17a.5.5,0,0,1-.44-.25.51.51,0,0,1,.18-.69L302,50.75a.5.5,0,1,1,.5.87L74.79,183.1A.47.47,0,0,1,74.54,183.17Z" style="fill:#fafafa"></path><path d="M83.63,187.35a.5.5,0,0,1-.43-.25.5.5,0,0,1,.18-.69L311.12,54.93a.49.49,0,0,1,.68.18.51.51,0,0,1-.18.69L83.89,187.28A.48.48,0,0,1,83.63,187.35Z" style="fill:#fafafa"></path><path d="M92.73,191.53a.49.49,0,0,1-.43-.26.49.49,0,0,1,.18-.68L320.22,59.1a.51.51,0,0,1,.5.88L93,191.46A.55.55,0,0,1,92.73,191.53Z" style="fill:#fafafa"></path><path d="M307.69,67.42a.52.52,0,0,1-.21,0L270.72,50.87a.51.51,0,0,1,.42-.92l36.75,16.51a.5.5,0,0,1-.2,1Z" style="fill:#fafafa"></path><path d="M295.43,74.5a.46.46,0,0,1-.2,0L258.47,58a.51.51,0,0,1-.25-.67.5.5,0,0,1,.66-.25l36.76,16.5a.51.51,0,0,1,.25.67A.5.5,0,0,1,295.43,74.5Z" style="fill:#fafafa"></path><path d="M283.18,81.57a.52.52,0,0,1-.21,0L246.22,65a.5.5,0,0,1,.41-.92l36.76,16.51a.5.5,0,0,1-.21,1Z" style="fill:#fafafa"></path><path d="M270.93,88.64a.52.52,0,0,1-.21,0L234,72.09a.5.5,0,0,1-.26-.66.51.51,0,0,1,.67-.25l36.76,16.5a.5.5,0,0,1-.21,1Z" style="fill:#fafafa"></path><path d="M258.68,95.72a.54.54,0,0,1-.21,0l-36.76-16.5a.51.51,0,1,1,.42-.92l36.75,16.51a.5.5,0,0,1,.26.66A.51.51,0,0,1,258.68,95.72Z" style="fill:#fafafa"></path><path d="M246.42,102.79a.48.48,0,0,1-.2,0L209.46,86.24a.5.5,0,0,1,.41-.92l36.76,16.51a.5.5,0,0,1-.21,1Z" style="fill:#fafafa"></path><path d="M234.17,109.87a.46.46,0,0,1-.2-.05l-36.76-16.5a.51.51,0,0,1-.25-.67.5.5,0,0,1,.66-.25l36.76,16.5a.52.52,0,0,1,.25.67A.5.5,0,0,1,234.17,109.87Z" style="fill:#fafafa"></path><path d="M221.92,116.94a.52.52,0,0,1-.21,0L185,100.39a.5.5,0,0,1,.41-.92L222.13,116a.5.5,0,0,1,.25.66A.51.51,0,0,1,221.92,116.94Z" style="fill:#fafafa"></path><path d="M209.67,124a.52.52,0,0,1-.21,0l-36.75-16.51a.5.5,0,0,1-.26-.66.51.51,0,0,1,.67-.25l36.75,16.5a.51.51,0,0,1,.26.67A.52.52,0,0,1,209.67,124Z" style="fill:#fafafa"></path><path d="M197.42,131.09a.54.54,0,0,1-.21-.05l-36.76-16.5a.51.51,0,1,1,.42-.92l36.75,16.51a.49.49,0,0,1,.25.66A.49.49,0,0,1,197.42,131.09Z" style="fill:#fafafa"></path><path d="M185.16,138.16a.45.45,0,0,1-.2,0L148.2,121.61a.5.5,0,0,1,.41-.92l36.76,16.51a.49.49,0,0,1,.25.66A.5.5,0,0,1,185.16,138.16Z" style="fill:#fafafa"></path><path d="M172.91,145.24a.46.46,0,0,1-.2-.05L136,128.69a.51.51,0,0,1-.25-.67.5.5,0,0,1,.66-.25l36.76,16.5a.51.51,0,0,1-.21,1Z" style="fill:#fafafa"></path><path d="M160.66,152.31a.54.54,0,0,1-.21-.05l-36.75-16.5a.51.51,0,0,1-.26-.67.52.52,0,0,1,.67-.25l36.75,16.51a.5.5,0,0,1,.26.66A.51.51,0,0,1,160.66,152.31Z" style="fill:#fafafa"></path><path d="M148.41,159.38a.52.52,0,0,1-.21,0l-36.75-16.51a.5.5,0,0,1-.26-.66.51.51,0,0,1,.67-.25l36.75,16.5a.51.51,0,0,1,.26.67A.52.52,0,0,1,148.41,159.38Z" style="fill:#fafafa"></path><path d="M136.15,166.46a.53.53,0,0,1-.2-.05l-36.76-16.5a.51.51,0,0,1-.25-.67.5.5,0,0,1,.66-.25l36.76,16.51a.5.5,0,0,1-.21,1Z" style="fill:#fafafa"></path><path d="M123.9,173.53a.45.45,0,0,1-.2,0L86.94,157a.5.5,0,0,1,.41-.92l36.76,16.51a.5.5,0,0,1-.21,1Z" style="fill:#fafafa"></path><path d="M111.65,180.6a.52.52,0,0,1-.21,0L74.69,164.05a.5.5,0,1,1,.41-.91l36.76,16.5a.51.51,0,0,1,.25.67A.51.51,0,0,1,111.65,180.6Z" style="fill:#fafafa"></path><path d="M99.4,187.68a.54.54,0,0,1-.21-.05l-36.75-16.5a.51.51,0,0,1-.26-.67.52.52,0,0,1,.67-.25L99.6,186.72a.5.5,0,0,1,.26.66A.51.51,0,0,1,99.4,187.68Z" style="fill:#fafafa"></path><path d="M36.22,358.69h-.06a.5.5,0,0,1-.44-.55L55.81,174.52a.5.5,0,0,1,1,.11L36.72,358.25A.51.51,0,0,1,36.22,358.69Z" style="fill:#fafafa"></path><path d="M50.39,366.88h0a.5.5,0,0,1-.46-.54l15-187.9a.5.5,0,0,1,.54-.46.51.51,0,0,1,.46.55l-15,187.89A.5.5,0,0,1,50.39,366.88Z" style="fill:#fafafa"></path><path d="M64.4,374.69h0a.51.51,0,0,1-.47-.53L74,182.64a.51.51,0,0,1,1,.05L64.9,374.21A.5.5,0,0,1,64.4,374.69Z" style="fill:#fafafa"></path><path d="M79,383.39h0a.5.5,0,0,1-.49-.52l4.65-196a.5.5,0,0,1,.52-.49.52.52,0,0,1,.49.52l-4.66,196A.51.51,0,0,1,79,383.39Z" style="fill:#fafafa"></path><path d="M92.73,391.13a.5.5,0,0,1-.5-.51V191a.5.5,0,0,1,1,0v199.6A.5.5,0,0,1,92.73,391.13Z" style="fill:#fafafa"></path><path d="M92.73,368.87a.57.57,0,0,1-.25-.06L21.55,328.3a.5.5,0,1,1,.5-.87L93,367.93a.5.5,0,0,1-.25.94Z" style="fill:#fafafa"></path><path d="M92.73,351.14a.47.47,0,0,1-.25-.07L24.75,312.86a.51.51,0,0,1-.19-.69.51.51,0,0,1,.69-.19L93,350.2a.49.49,0,0,1,.19.68A.49.49,0,0,1,92.73,351.14Z" style="fill:#fafafa"></path><path d="M92.73,333.4a.5.5,0,0,1-.24-.06L28,297.42a.51.51,0,0,1-.19-.69.49.49,0,0,1,.68-.19L93,332.46a.51.51,0,0,1,.19.69A.5.5,0,0,1,92.73,333.4Z" style="fill:#fafafa"></path><path d="M92.73,315.67a.53.53,0,0,1-.24-.06L31.16,282a.5.5,0,0,1-.2-.69.49.49,0,0,1,.68-.19L93,314.73a.49.49,0,0,1,.2.68A.51.51,0,0,1,92.73,315.67Z" style="fill:#fafafa"></path><path d="M92.73,297.93a.43.43,0,0,1-.24-.06L34.36,266.54a.49.49,0,0,1-.2-.68.5.5,0,0,1,.68-.21L93,297a.5.5,0,0,1,.2.68A.49.49,0,0,1,92.73,297.93Z" style="fill:#fafafa"></path><path d="M92.73,280.2a.46.46,0,0,1-.23-.06l-54.94-29a.51.51,0,0,1-.21-.68.5.5,0,0,1,.68-.21l54.94,29a.5.5,0,0,1-.24.95Z" style="fill:#fafafa"></path><path d="M92.73,262.46a.46.46,0,0,1-.23,0L40.77,235.66a.5.5,0,0,1-.22-.68.51.51,0,0,1,.68-.22L93,261.52a.5.5,0,0,1-.23.94Z" style="fill:#fafafa"></path><path d="M92.73,244.73a.54.54,0,0,1-.22,0L44,220.22a.5.5,0,0,1-.22-.68.49.49,0,0,1,.67-.22L93,243.78a.5.5,0,0,1-.23.95Z" style="fill:#fafafa"></path><path d="M92.73,227a.46.46,0,0,1-.22-.06L47.18,204.78a.5.5,0,0,1-.23-.68.51.51,0,0,1,.67-.23L93,226a.51.51,0,0,1-.22,1Z" style="fill:#fafafa"></path><path d="M92.73,386.61a.47.47,0,0,1-.25-.07l-74.13-42.8a.5.5,0,1,1,.5-.87L93,385.67a.51.51,0,0,1,.19.69A.52.52,0,0,1,92.73,386.61Z" style="fill:#fafafa"></path><path d="M18,347h-.1a.5.5,0,0,1-.4-.59l33.7-161.7c.81-3.62,1.21-3.88,1.16-3.61L18.44,346.55A.5.5,0,0,1,18,347Z" style="fill:#fafafa"></path><path d="M92.73,209.26a.41.41,0,0,1-.21,0L50.38,189.34a.5.5,0,1,1,.43-.91L93,208.3a.5.5,0,0,1-.22,1Z" style="fill:#fafafa"></path><path d="M92.73,191.53a.54.54,0,0,1-.21-.05L53.59,173.9A.5.5,0,0,1,54,173l38.94,17.59a.5.5,0,0,1-.21,1Z" style="fill:#fafafa"></path></g></g><g id="freepik--soccer-ball--inject-23"><g id="freepik--Ball--inject-23"><g id="freepik--soccer-ball--inject-23"><circle cx="152.15" cy="52.54" r="16.17" transform="translate(7.42 122.98) rotate(-45)" style="fill:#f5f5f5"></circle><path d="M155,44.66a17.23,17.23,0,0,0-6.51,1.83,35.7,35.7,0,0,0,0,6.54,22,22,0,0,0,5.82,2s3.1-2.57,3.95-4.89A13.4,13.4,0,0,0,155,44.66Z" style="fill:#455a64"></path><path d="M144.15,43.74l-.46-.9-.08.12-.08.1.43.86,4.44,2.67.49.36a.41.41,0,0,1,.05-.09.52.52,0,0,1,.11-.1l-.51-.38Z" style="fill:#455a64"></path><path d="M153.38,37.49c-.37-.05-.77-.09-1.22-.12a10.88,10.88,0,0,0-6.69,1.73l-.91.52a1.17,1.17,0,0,1,.09.24l1-.56a10.61,10.61,0,0,1,6.53-1.68c.57,0,1.08.1,1.52.16A.86.86,0,0,1,153.38,37.49Z" style="fill:#455a64"></path><path d="M156.55,39.62l-.21.71-1.47,4.29-.35.9.25.08.34-.9,1.46-4.29.22-.72A1.09,1.09,0,0,1,156.55,39.62Z" style="fill:#455a64"></path><path d="M164.34,50.28a5.85,5.85,0,0,1-.51.39,49.17,49.17,0,0,0-5.58-.65h-.09l-.34,0a1,1,0,0,1,0,.25l.42,0a49.62,49.62,0,0,1,5.59.65h0l0,0a3.55,3.55,0,0,0,.49-.36A2,2,0,0,1,164.34,50.28Z" style="fill:#455a64"></path><path d="M162,41.3a12.54,12.54,0,0,1,3.6,5.17,4.49,4.49,0,0,1,.13.59L166,47a4.35,4.35,0,0,0-.13-.58,12.88,12.88,0,0,0-3.66-5.28l-.31-.3c-.21-.2-.41-.38-.61-.54a.27.27,0,0,1-.06.12.76.76,0,0,1-.09.09,5.17,5.17,0,0,1,.58.51Z" style="fill:#455a64"></path><path d="M154.43,55c0-.1.13-.44.3-.88a1.24,1.24,0,0,1-.31.1c-.14.41-.22.7-.24.74v0l1.59,6,0,0s.56.39,1.15.78l.06,0,.26-.06c-.47-.31-1-.64-1.29-.88Z" style="fill:#455a64"></path><path d="M165.63,55.85c-.12.31-.25.62-.4.93a15.89,15.89,0,0,1-3.93,4.91c-.23.12-.63.32-1.05.5a.86.86,0,0,1,.19.19c.48-.22.89-.43,1-.48a16,16,0,0,0,4-5c.14-.3.26-.58.37-.87A.79.79,0,0,1,165.63,55.85Z" style="fill:#455a64"></path><path d="M149.18,52.49l-.77.43a37.09,37.09,0,0,0-4.79,3.84l0,0c-.06.1-.27.46-.5.93l.18.22c.19-.4.38-.77.52-1a36.17,36.17,0,0,1,4.74-3.79c.32-.19.59-.35.84-.47A1.12,1.12,0,0,1,149.18,52.49Z" style="fill:#455a64"></path><path d="M152.74,64.55c-.43,0-.91,0-1.44-.08a11.43,11.43,0,0,1-6-2.2h-.05a6.27,6.27,0,0,1-.78-.24c0,.09,0,.18,0,.26.35.12.62.2.71.22a11.93,11.93,0,0,0,6.08,2.23c.5,0,.94.06,1.35.08A.62.62,0,0,1,152.74,64.55Z" style="fill:#455a64"></path><path d="M139,54.8a.44.44,0,0,1,.25,0,8.17,8.17,0,0,1-.17-.86,24.35,24.35,0,0,1,.31-6.37,9.5,9.5,0,0,1,.28-1.14h-.26a9.14,9.14,0,0,0-.27,1.09,25,25,0,0,0-.31,6.45A8,8,0,0,0,139,54.8Z" style="fill:#455a64"></path><path d="M152.15,37.49a12.64,12.64,0,0,1,4.3,2.88,15.46,15.46,0,0,1,5.33.54,10.25,10.25,0,0,0-.28-1.57,16,16,0,0,0-8-2.92A11.29,11.29,0,0,0,152.15,37.49Z" style="fill:#455a64"></path><path d="M167.84,48.58a13.32,13.32,0,0,0-2.12-2.15,22.6,22.6,0,0,1-1.87,4.37,41.36,41.36,0,0,1,1.49,6,15.11,15.11,0,0,0,2.59-.77,15.85,15.85,0,0,0,.4-3.53A16.15,16.15,0,0,0,167.84,48.58Z" style="fill:#455a64"></path><path d="M141.41,63.46a10.22,10.22,0,0,0,3.85-1.09s-.82-2.45-1.56-5.52A31.6,31.6,0,0,1,139,53.94s-1,1.05-1.24,4.39A16.38,16.38,0,0,0,141.41,63.46Z" style="fill:#455a64"></path><path d="M138,44.72a6.46,6.46,0,0,0,1.28,2.8,11.23,11.23,0,0,1,4.78-3.69,33.2,33.2,0,0,1,1.48-4.63,15.25,15.25,0,0,0-2.4-.09A16.27,16.27,0,0,0,138,44.72Z" style="fill:#455a64"></path><path d="M161.35,61.8a23.75,23.75,0,0,1-5.48-.82,28.09,28.09,0,0,1-4.58,3.61,9.2,9.2,0,0,0,2.57,3.21,18.11,18.11,0,0,0,6-1.71A12.43,12.43,0,0,0,161.35,61.8Z" style="fill:#455a64"></path><path d="M166.08,60.76c-2.71,3.84-13.14,6.26-19.79-2.37s-2.81-18.55,2-21.57a16.18,16.18,0,1,0,17.76,23.94Z" style="opacity:0.1"></path></g><path d="M183.23,51.45h0a18.16,18.16,0,0,0-2.44,0,.5.5,0,0,1,0-1,19.82,19.82,0,0,1,2.55,0,.5.5,0,0,1,.47.53A.51.51,0,0,1,183.23,51.45Z" style="fill:#455a64"></path><path d="M231.08,109a.5.5,0,0,1-.5-.48c0-1.69-.14-3.39-.3-5a.49.49,0,0,1,.45-.54.48.48,0,0,1,.54.44c.17,1.68.27,3.4.31,5.11a.49.49,0,0,1-.48.51Zm-1-10.1a.51.51,0,0,1-.49-.41c-.29-1.66-.66-3.32-1.08-4.92a.51.51,0,0,1,.36-.62.5.5,0,0,1,.61.36c.43,1.63.8,3.32,1.1,5a.51.51,0,0,1-.41.58ZM227.5,89a.5.5,0,0,1-.48-.33c-.56-1.58-1.19-3.15-1.89-4.67a.5.5,0,0,1,.25-.66.49.49,0,0,1,.66.25c.71,1.54,1.36,3.14,1.93,4.75a.5.5,0,0,1-.31.63A.45.45,0,0,1,227.5,89Zm-4.22-9.23a.51.51,0,0,1-.43-.26c-.82-1.45-1.72-2.89-2.67-4.27a.5.5,0,0,1,.83-.57c1,1.41,1.87,2.87,2.71,4.35a.51.51,0,0,1-.19.68A.55.55,0,0,1,223.28,79.8Zm-5.74-8.38a.48.48,0,0,1-.38-.18c-1.06-1.3-2.19-2.56-3.36-3.76a.5.5,0,1,1,.71-.7c1.19,1.22,2.34,2.51,3.42,3.82a.52.52,0,0,1-.07.71A.54.54,0,0,1,217.54,71.42Zm-7.08-7.29a.52.52,0,0,1-.33-.12c-1.27-1.1-2.59-2.16-3.94-3.14a.5.5,0,0,1,.59-.81c1.37,1,2.72,2.08,4,3.2a.49.49,0,0,1,.05.7A.48.48,0,0,1,210.46,64.13Zm-8.21-6a.51.51,0,0,1-.26-.07c-1.45-.88-2.93-1.69-4.42-2.41a.51.51,0,0,1-.23-.67.5.5,0,0,1,.67-.23c1.51.73,3,1.56,4.5,2.46a.49.49,0,0,1,.17.68A.49.49,0,0,1,202.25,58.14Zm-9.13-4.44-.18,0a42.66,42.66,0,0,0-4.8-1.46.5.5,0,1,1,.22-1,44.25,44.25,0,0,1,4.93,1.49.5.5,0,0,1,.29.65A.48.48,0,0,1,193.12,53.7Z" style="fill:#455a64"></path><path d="M230.87,116.57a.51.51,0,0,1-.34-.14.5.5,0,0,1-.16-.4c.07-.84.12-1.66.16-2.48a.5.5,0,0,1,.52-.48.49.49,0,0,1,.47.52c0,.63-.06,1.25-.1,1.88l1.85-.27a.51.51,0,0,1,.57.43.51.51,0,0,1-.43.56c-.85.12-1.67.24-2.46.37Z" style="fill:#455a64"></path><path d="M329.94,142.83a.51.51,0,0,1-.36-.15c-1.18-1.24-2.41-2.47-3.67-3.63a.5.5,0,0,1,0-.71.51.51,0,0,1,.71,0c1.27,1.19,2.52,2.42,3.72,3.68a.49.49,0,0,1-.37.84Zm-7.62-7.05a.54.54,0,0,1-.32-.11c-1.33-1.08-2.72-2.13-4.12-3.12a.52.52,0,0,1-.12-.7.5.5,0,0,1,.7-.12c1.42,1,2.82,2.07,4.17,3.16a.5.5,0,0,1,.08.7A.52.52,0,0,1,322.32,135.78Zm-8.48-6a.42.42,0,0,1-.26-.08c-1.45-.89-3-1.76-4.48-2.58a.49.49,0,0,1-.21-.67.5.5,0,0,1,.68-.21c1.54.83,3.06,1.71,4.53,2.61a.49.49,0,0,1,.16.69A.47.47,0,0,1,313.84,129.77Zm-9.16-4.92a.54.54,0,0,1-.21,0c-1.54-.71-3.14-1.4-4.75-2a.51.51,0,0,1-.28-.65.49.49,0,0,1,.65-.28c1.63.65,3.24,1.34,4.8,2.07a.5.5,0,0,1-.21.95ZM295,121l-.16,0c-1.61-.55-3.27-1.07-4.94-1.54a.51.51,0,0,1-.35-.62.5.5,0,0,1,.62-.35c1.69.48,3.37,1,5,1.56a.5.5,0,0,1-.16,1Zm-10-2.85-.11,0c-1.66-.39-3.36-.75-5.07-1.07a.5.5,0,0,1,.19-1c1.72.33,3.43.7,5.11,1.09a.5.5,0,0,1,.37.6A.51.51,0,0,1,285,118.14Zm-10.22-1.94h-.07c-1.68-.25-3.41-.47-5.14-.65a.5.5,0,0,1,.11-1c1.74.18,3.48.4,5.18.65a.5.5,0,0,1,.42.57A.51.51,0,0,1,274.81,116.2Zm-36.31-.63a.52.52,0,0,1-.5-.45.5.5,0,0,1,.45-.55c1.71-.18,3.46-.33,5.2-.45a.5.5,0,0,1,.07,1c-1.73.12-3.47.27-5.17.44Zm26-.48h0c-1.7-.12-3.44-.21-5.18-.27a.49.49,0,0,1-.48-.51.5.5,0,0,1,.5-.48h0c1.76,0,3.51.14,5.22.26a.5.5,0,0,1,0,1Zm-15.6-.25a.49.49,0,0,1-.49-.48.5.5,0,0,1,.48-.52c1.73-.06,3.49-.09,5.21-.09h0a.49.49,0,0,1,.5.49.5.5,0,0,1-.49.51c-1.72,0-3.46,0-5.19.09Z" style="fill:#455a64"></path><path d="M335,148.69a.48.48,0,0,1-.39-.19c-.52-.66-1-1.3-1.56-1.94a.49.49,0,0,1,.06-.7.51.51,0,0,1,.71.06c.53.65,1.06,1.3,1.58,2a.49.49,0,0,1-.4.8Z" style="fill:#455a64"></path></g></g><g id="freepik--character-2--inject-23"><g id="freepik--Character--inject-23"><g id="freepik--character--inject-23"><path d="M419.71,360.73c-.16,1.15-.68,2.09.82,4.77a10.65,10.65,0,0,0,4,3.68,17.09,17.09,0,0,1,3.28,3.07,14.58,14.58,0,0,0,3.43,3.33c1,.68,3.65.42,4.83-.27s1.53-1.79,1.2-3.79-6.51-1.9-6.51-1.9Z" style="fill:#37474f"></path><path d="M396.64,357.53l.17,18c0,.42,1.07,4.29,3.12,4.36s4.68-4.48,4.87-5.42c1.54-7.63,4.29-24,4.63-29.66a51.28,51.28,0,0,0-.46-10.44L419.87,280l-22.48-.8s-1.26,49.33-1.25,54.61S396.64,357.53,396.64,357.53Z" style="fill:#ffa8a7"></path><path d="M415.27,289.39l15.2-2.74s2.55,24.63,2.94,31.9c.33,6.07.55,9.45.55,9.45s2.11,3.77,2.21,13.42c0,2.63,0,5.07,0,7.14h0l-.31,18.72c0,1.1-6,2.47-7.36,0a39.76,39.76,0,0,0-.9-5.74c-.47-1.88-1.27-5.15-1.27-5.15-.29-1.64-.51-3.09-.67-4.23-.59-2.17-1.41-5.45-2.29-9.81-2-9.86-3.18-16.77-3.88-21.66S415.27,289.39,415.27,289.39Z" style="fill:#ffa8a7"></path><path d="M433.16,305.65c-.44-5.93-.55-11.75-.85-17a86.08,86.08,0,0,0-3.62-20.17c-.49-.14-30.62-13.29-31.38,4.72-.19,4.45-.52,16.29-.84,25.8-.23,6.88-.63,14.39-.68,19.58,1.06,1.22,12.72,3.62,16.41,2.17,1.39-6.53,2.71-13.45,2.71-13.45s1.77,6.22,3.16,12.58a28.84,28.84,0,0,0,15.84-2.17C433.71,314,433.43,309.31,433.16,305.65Z" style="fill:#455a64"></path><path d="M414.91,307.3l2.16-11.74a10.35,10.35,0,0,0,5.58-6.9,8.28,8.28,0,0,1-3.91,7.37l-2.65,10.18,1.12,9.9Z" style="opacity:0.2"></path><path d="M379.73,381.87c-.43,0-.38,1.25-.23,1.8s1.91,2.41,5.06,3.06,7.48.07,9.35,0,5.07.84,6.93,1.11,5.21-.36,6.31-1.41a1.92,1.92,0,0,0,.45-1.53c0-1.24-.15-1.49-.29-1.48Z" style="fill:#37474f"></path><path d="M406.17,379c.13.49.27,1,.41,1.47.21.69.46,1.36.64,2.05a1.78,1.78,0,0,1,0,.69,3.16,3.16,0,0,1-.07,1,3.42,3.42,0,0,1-2.25,1.64,11.62,11.62,0,0,1-6.28.06,18.79,18.79,0,0,0-4.76-.51,46.39,46.39,0,0,1-6.45.25,15.8,15.8,0,0,1-4.73-1,5.92,5.92,0,0,1-2.85-2.56,4.25,4.25,0,0,1,2.44-4.24,9.74,9.74,0,0,1,4.81-1c1.8,0,3.16.27,4.76.16a7.92,7.92,0,0,0,3.19-.73,1.77,1.77,0,0,0,.77-.81c.27-.74.36-.91.42-1.05s.55-.56.56-.18l0,1.25a6.76,6.76,0,0,0,1.85,1.2,3,3,0,0,1,1.78,1.4c.08.19.15.42.35.48s.4-.07.56-.21c.8-.66,1.48-1,2.33-1.63a2.51,2.51,0,0,0,1-1.29,3.77,3.77,0,0,0,.07-.52,1,1,0,0,1,.28.1,2.25,2.25,0,0,1,.53,1.31C405.75,377.23,406,378.1,406.17,379Z" style="fill:#455a64"></path><path d="M394.53,376.45a5.59,5.59,0,0,0-1.94,3.66c0,.93-1.6,1-1.64.06a8,8,0,0,1,1.48-3.25A3,3,0,0,1,394.53,376.45Z" style="fill:#fafafa"></path><path d="M391,377a5.77,5.77,0,0,0-1.8,3.12c0,.69-1.45.61-1.42-.07a4.43,4.43,0,0,1,1.79-3.11C390,376.63,390.82,376.72,391,377Z" style="fill:#fafafa"></path><path d="M388.16,376.85c-.75,0-2.33,1-3.11,3.3a13.21,13.21,0,0,0-.35,5.2,7.42,7.42,0,0,1-4.17-2,3.11,3.11,0,0,1-.24-4.83c1.09-1.3,2.78-2.15,5.44-2.29,3-.15,3.23.65,3.23.65Z" style="fill:#fafafa"></path><path d="M421.35,358.28c1.47-.86,5.73,1.08,5.73,1.08l.25,1,.27,1.06c.1.34.15.72.26,1.06s.42,1.63.42,1.63c.48.54,1.24.44,1.71,1a6.14,6.14,0,0,0,.63.71,1.07,1.07,0,0,0,.89.28c.6-.14.79-.93,1.31-1.26a2.27,2.27,0,0,1,1.32-.2,2.45,2.45,0,0,0,1.28-.25.82.82,0,0,0,.52-.81c.36-.07.46.26.49.62.11,1.08.31,2.19.5,3.27.13.81.36,1.76.48,2.56.08.55.06,2.15-.67,2.8a2.67,2.67,0,0,1-.72.64,5.06,5.06,0,0,1-5.56-.45c-1.61-1.57-2.75-3-5-4.88-1.34-1.11-2.64-1.64-3.72-3a8.93,8.93,0,0,1-1.36-2.6C419.57,360.2,419.83,359.17,421.35,358.28Z" style="fill:#455a64"></path><path d="M425.63,364.12a5.35,5.35,0,0,1,2-2.62c-.09-.37-.19-.75-.29-1.14a5.67,5.67,0,0,0-2.94,3.26C424.18,364.3,425.16,364.69,425.63,364.12Z" style="fill:#fafafa"></path><path d="M427.84,365.05a5.09,5.09,0,0,1,.44-.94l-.42-1.63a5.77,5.77,0,0,0-1.26,2.07C426.39,365.24,427.36,365.62,427.84,365.05Z" style="fill:#fafafa"></path><path d="M421.73,365.13h0c0-.18-.26-4.38,5.35-5.76l-.14-.54h0a4.87,4.87,0,0,0-2.57-1.22,4.1,4.1,0,0,0-4.42,1.9C419.08,361,420.59,364.4,421.73,365.13Z" style="fill:#fafafa"></path></g><path d="M443.45,222.75c-1.46-3.35-8.47-14-10.87-18.6a58.77,58.77,0,0,0-3.14-5.94,9.64,9.64,0,0,0-3.67-2.5,17.82,17.82,0,0,0-7.42-1.06c-.89.12-2,.53-1.64,1.57a44.29,44.29,0,0,0,6.71,6l-.14.05,9.79,23-11.21,6.41,5.33,14.3s10.95-10.19,15.3-14.43C445.39,228.81,445.06,226.45,443.45,222.75Z" style="fill:#ffa8a7"></path><path d="M433.07,225.35a6.84,6.84,0,0,1,5.46.79,5.6,5.6,0,0,0-6-2Z" style="fill:#f28f8f"></path><path d="M421.62,230.65l9.88-4.41c3.59-.36,8,5.4,7.7,9.67L430.42,243Z" style="fill:#BA68C8"></path><path d="M421.62,230.65l9.88-4.41c3.59-.36,8,5.4,7.7,9.67L430.42,243Z" style="opacity:0.4"></path><polygon points="409.5 225.31 410.8 236.38 420.74 236.28 420.1 223.36 409.5 225.31" style="fill:#ffa8a7"></polygon><path d="M431.6,235c-.79-3-4.73-5.38-8.55-4.91l-2.6.33c-.53,1.84-5.33,3.08-10.15,1.74-1.48.32-2.83.66-4.07,1-3.54,1-7.48,3.24-8.48,14.61,0,0-1.66,27.3-2,32.43a39.52,39.52,0,0,0,22,3.41c10.55-1.61,13.58-5.25,13.58-5.25l-1.53-15.75s.92-8.22,1.58-12.18C432.81,241.71,432.15,237.09,431.6,235Z" style="fill:#f5f5f5"></path><path d="M402.71,211.5s-2.76,3.84-2.48,4.24,2.18.83,2.18.83Z" style="fill:#f28f8f"></path><path d="M410.37,200.87c-5.31.9-6.92,3.15-7.75,11.5-.88,8.71-.1,11.5,1,12.72.75.82,5.05,1.14,7.24.63,2.75-.64,9-2.57,12-6.85,3.6-5,4.77-12,1.26-15C419.23,199.59,412.53,200.51,410.37,200.87Z" style="fill:#ffa8a7"></path><path d="M404.59,225.56a15.78,15.78,0,0,0,5,.35,4.17,4.17,0,0,0,1.77-1.87S410.33,225.39,404.59,225.56Z" style="fill:#f28f8f"></path><path d="M400.11,204.77l.15.3a5.13,5.13,0,0,0,1.26,1.69,5.48,5.48,0,0,0,1.82.92,6.8,6.8,0,0,0,4,.12c.21-.08.47-.16.63,0a.68.68,0,0,1,.14.31,1.26,1.26,0,0,0,.44.6c.14.1.46.25.47.45s-.11.21-.15.29-.11.29-.16.44a3.88,3.88,0,0,0-.1,1.79,1.86,1.86,0,0,0,.47.95c0,.06.58.72.61.62s1-3.2,3.67-2.68,3,4,1.14,6.08-3.39,1.17-3.39,1.17-.1,4.62,1.84,7.32c0,0,2.29.85,6.61.11,2.65-.46,6.51-3.59,8.21-7,3.61-7.24,4.11-13.86-.51-16-.37-3.41-3-5-6-5.87a15,15,0,0,0-4.91-.26,13.44,13.44,0,0,1-5.45-.73,7.52,7.52,0,0,0-2.9-.73c-1,0-2.06.85-2,1.84a4.74,4.74,0,0,0-5.33-.11,4.11,4.11,0,0,0-1.75,3.74A12.07,12.07,0,0,0,400.11,204.77Z" style="fill:#263238"></path><path d="M409.6,215.09l.24-3.65a1.83,1.83,0,0,0-.24,3.65Z" style="fill:#263238"></path><path d="M405.61,235.31c-6.46-4.75-18-16.1-19.57-17.14-2.15-1.44-5.86.92-8,1.94s-1.79,1.92,1.76,6.47c3.44,4.4,18.45,21,18.45,21Z" style="fill:#ffa8a7"></path><path d="M406,233.76c-4.5-3.12-13.19-10.25-13.19-10.25s-7.36,4.32-6.16,12.28c0,0,9.24,10.44,12,12.88,1.86,1.63,7.51-.55,8.52-6.12C408.46,235.75,406,233.76,406,233.76Z" style="fill:#BA68C8"></path><path d="M406,233.76c-4.5-3.12-13.19-10.25-13.19-10.25s-7.36,4.32-6.16,12.28c0,0,9.24,10.44,12,12.88,1.86,1.63,7.51-.55,8.52-6.12C408.46,235.75,406,233.76,406,233.76Z" style="opacity:0.4"></path><path d="M376.89,222c-1.11-2.5,3.41-5.91,7-9.31,2.83-2.67,5.86-5.2,7.28-6.57,1.74-1.68,2.76-2.6,4.19-4a25.52,25.52,0,0,0,1.84-2c.56-.67,1.21-2.12,1.81-2.77a9.44,9.44,0,0,1,5.22-3.07,10.79,10.79,0,0,1,3.88.1,24.77,24.77,0,0,1,3.18.61,2.26,2.26,0,0,1,1,.48c.55.56.07,1.19-.46,1.51-1.24.74-2.59,1.24-3.88,1.87a5.86,5.86,0,0,0-2.87,2.11,4.27,4.27,0,0,0,2.22-.27,2.92,2.92,0,0,1,2.3.1.73.73,0,0,1,.35.76c-.09.31-.43.46-.74.57a18.22,18.22,0,0,0-2.92,1.4,30.35,30.35,0,0,1-2.74,1.76c-.61.28-1.27.45-1.89.69-1.51.58-2.66,2-3.71,3.23-1.47,1.64-2.89,3.73-4.68,5.9-1.42,1.73-3.86,4.7-5.3,6.41C387.31,222.32,376.89,222,376.89,222Z" style="fill:#ffa8a7"></path><path d="M388.78,220.57a8.71,8.71,0,0,0-5.49-2s2.43-1.16,6.13,1.21Z" style="fill:#f28f8f"></path><polygon points="440.87 172.38 433.97 167.8 434.28 179 429.94 175.99 430.61 186.27 426.79 184.92 426.83 194.27 428.11 188.45 433.62 188.82 434.08 181.28 438.29 182.76 440.87 172.38" style="fill:#BA68C8"></polygon><polygon points="423.14 188.29 419.13 181.02 423.14 180.24 417.86 171.31 425.15 170.58 426.79 181.04 422.32 182.79 423.14 188.29" style="fill:#BA68C8"></polygon></g></g><g id="freepik--character-1--inject-23"><g id="freepik--character--inject-23"><path d="M212.87,188.22c-.46,2.31-6,22.1-7.8,26.21-7.61-1.8-6.94-15.54-6.94-15.54,3.49-7.64,5.36-12,6-14.22a9.26,9.26,0,0,0,.11-3c-.06-1.1-1.49-14.49-2.83-18.36a2.9,2.9,0,0,0-1.36-1.6,17.12,17.12,0,0,1-3.72-3.22c-1-1-1.86-1.19-1.75-1.52a1.61,1.61,0,0,1,2-.82,11,11,0,0,1,2.4,1.15,15,15,0,0,0-2.59-4c-2.45-2.72-2.64-4.46,2-4.72,2.92-.17,6.1,1.57,8.61,7.91a58.61,58.61,0,0,1,1.87,7.09c1.29,5.52,3.46,14.29,4,18.17A19,19,0,0,1,212.87,188.22Z" style="fill:#ffa8a7"></path><path d="M212.39,192.31c-1.42,6.3-6.5,18.52-6.47,22.28-.28,2.21-.56-4.63-2.92-8.28-3.31-5.1-9.45-5.58-7.62-6.5,2.25-1.13,8.08-14.18,8.08-14.18.85-2,.74-2.53.26-7s-.76-7.69-.76-7.69,4.39.12,7.31-1.78c0,0,1.18,4.34,2.46,9.47S214,186,212.39,192.31Z" style="fill:#455a64"></path><path d="M208.35,160.42a53.45,53.45,0,0,0-1.9-7.13c-1.23-3.38-2.62-6-6.08-6.69s-5.27.44-6.31,1.81.67,3.29,1.84,4.56a22.53,22.53,0,0,1,2.12,2.7s-2.13-1.5-3.45-.7-1.21,1.18.09,2.3,3,2.79,4.21,3.63a20.73,20.73,0,0,1,2.29,1.85S206,163.52,208.35,160.42Z" style="fill:#BA68C8"></path><path d="M208.35,160.42a53.45,53.45,0,0,0-1.9-7.13c-1.23-3.38-2.62-6-6.08-6.69s-5.27.44-6.31,1.81.67,3.29,1.84,4.56a22.53,22.53,0,0,1,2.12,2.7s-2.13-1.5-3.45-.7-1.21,1.18.09,2.3,3,2.79,4.21,3.63a20.73,20.73,0,0,1,2.29,1.85S206,163.52,208.35,160.42Z" style="opacity:0.4"></path><path d="M208.35,160.42a4.71,4.71,0,0,1,.55,2.76s-2.11,2.32-7.05,1.87a3,3,0,0,1-.69-2.3S205.8,163.1,208.35,160.42Z" style="fill:#37474f"></path><path d="M205.67,239.06c1.06,2.5,4.32,8.17,11.12,22.79,6.69,14.37,5.77,17,3.81,21.81-1.85,4.57-11,25.76-12.79,31.24-2.63,3.54-4.61,3.51-7.29-.56,0,0,.29-6.76.95-14.6.64-7.67,1.47-11.95,6.51-18.57L191.43,247.1Z" style="fill:#ffa8a7"></path><path d="M194.84,283.62a46.05,46.05,0,0,1-1.77,9.79c-3.34,12.8-7.12,26.08-9.3,35.84-.59,2.64.65,1.13.09,3.78-.14.7-.18,2.1-.63,2.63-.79.93-2.71.52-3.59,0a7.83,7.83,0,0,1-2.66-3,26.34,26.34,0,0,1-1.39-2.82c-.46-1.11.1-2.83.25-4,0,0,.11-.89.19-2,.3-5-.7-12.69-.67-21.47,0-6.62,2.47-10.5,4.19-14.28,0,0-4.54-27.79-3.68-42l21.22-5S195.09,280.48,194.84,283.62Z" style="fill:#ffa8a7"></path><path d="M198.64,314.55a3.62,3.62,0,0,0-.62,2.05,29,29,0,0,1,2.09,5.74c.49,2.41.18,7.21,3,10.12,2.53,2.56,4.53,2.93,6.25,3a4.33,4.33,0,0,0,3.66-1.52s1.28-1.59.44-2.51S198.64,314.55,198.64,314.55Z" style="fill:#37474f"></path><path d="M198.53,314.79c-.11-.6.37-1.4.56-1.94a12.81,12.81,0,0,0,.74-2.27c0-.3.07-.65.14-.94s.1-.66.37-.78c0,0,.44-.1.44-.1s0,.33,0,.37a5.74,5.74,0,0,0,.54,1.31c.26.38.63.69.86,1.1.58,1,.27,2.32,1.24,3.18-.15-1.26-.33-2.71.5-2.84.54-.08,1.67.51,2.82.5s2-.4,2.47-.31.31.7.24,2a20.65,20.65,0,0,0,.12,4.55c.28,1.18.61,2.39,1,3.54,1.41,4.43,3.43,6.5,3.46,9s-3.82,4.14-7.05,2.41c-5.49-2.94-5.09-6.86-5.46-9.65a18.57,18.57,0,0,0-1.36-5.26A15.71,15.71,0,0,1,198.53,314.79Z" style="fill:#BA68C8"></path><path d="M198.53,314.79c-.11-.6.37-1.4.56-1.94a12.81,12.81,0,0,0,.74-2.27c0-.3.07-.65.14-.94s.1-.66.37-.78c0,0,.44-.1.44-.1s0,.33,0,.37a5.74,5.74,0,0,0,.54,1.31c.26.38.63.69.86,1.1.58,1,.27,2.32,1.24,3.18-.15-1.26-.33-2.71.5-2.84.54-.08,1.67.51,2.82.5s2-.4,2.47-.31.31.7.24,2a20.65,20.65,0,0,0,.12,4.55c.28,1.18.61,2.39,1,3.54,1.41,4.43,3.43,6.5,3.46,9s-3.82,4.14-7.05,2.41c-5.49-2.94-5.09-6.86-5.46-9.65a18.57,18.57,0,0,0-1.36-5.26A15.71,15.71,0,0,1,198.53,314.79Z" style="opacity:0.4"></path><path d="M203.26,314.55c-.78-.84-.54-2-1.09-3-.23-.41-.6-.72-.86-1.1a5.74,5.74,0,0,1-.54-1.31s0-.37,0-.37-.4.08-.44.1c-.27.12-.3.49-.37.78a2.08,2.08,0,0,0-.06.36.66.66,0,0,0,0,.14,3.12,3.12,0,0,0,.26.7c.28.61.58,1.21.89,1.8l.48.86a4.69,4.69,0,0,1,.34.67c.16.47.13.95.27,1.42a10,10,0,0,1,.35,1.53c.33,2.28.29,4.11,1.32,6.9s1.89,2.94,2.41,2.48-.14-1.11-1.1-3.56-1-5.54-1.73-8.22A.83.83,0,0,1,203.26,314.55Z" style="opacity:0.15"></path><path d="M205.18,329.28c1.64.63,2.51.29,2.24-1.2a7.35,7.35,0,0,0-1.38-2.84l3.94-.47s.19,2.75,1.08,3.27c.55.32,1.13-.41,1.39-1.28a10.65,10.65,0,0,1,1.54,4.43c0,2.6-3.82,4.14-7.05,2.41-4.6-2.46-5.06-5.61-5.31-8.21C201.83,327,203.53,328.66,205.18,329.28Z" style="opacity:0.15"></path><path d="M209.43,314.25a22.8,22.8,0,0,0,.13,4.41c.28,1.18.61,2.39,1,3.54.24.76.5,1.44.77,2.08a2.17,2.17,0,0,1-.2,1.08c-.43.52-.66.51-1.12-.59s-1.68-8.28-.55-10.52Z" style="opacity:0.15"></path><path d="M211,324.93a.38.38,0,0,1-.35.26,17.82,17.82,0,0,0-5.21.76.37.37,0,0,1-.47-.24.36.36,0,0,1,.24-.46,18.73,18.73,0,0,1,5.45-.8.37.37,0,0,1,.36.37A.36.36,0,0,1,211,324.93Z" style="fill:#e0e0e0"></path><path d="M210.59,323.09a.37.37,0,0,1-.42.25,8.92,8.92,0,0,0-5.36.78.37.37,0,0,1-.36-.64,9.51,9.51,0,0,1,5.86-.87.36.36,0,0,1,.29.43A.09.09,0,0,1,210.59,323.09Z" style="fill:#e0e0e0"></path><path d="M210.33,321.32a.36.36,0,0,1-.45.24,8.59,8.59,0,0,0-5.64.52.37.37,0,1,1-.34-.65,9.24,9.24,0,0,1,6.19-.58.38.38,0,0,1,.25.46Z" style="fill:#e0e0e0"></path><path d="M210.06,319.45v0a.36.36,0,0,1-.47.21,7.84,7.84,0,0,0-5.64.36.37.37,0,0,1-.5-.16.36.36,0,0,1,.16-.49,8.45,8.45,0,0,1,6.24-.4A.37.37,0,0,1,210.06,319.45Z" style="fill:#e0e0e0"></path><path d="M209.72,317.47l0,0a.37.37,0,0,1-.48.19c-2.66-1.14-5.71.34-5.74.35a.37.37,0,1,1-.33-.66c.14-.06,3.39-1.64,6.36-.37A.38.38,0,0,1,209.72,317.47Z" style="fill:#e0e0e0"></path><path d="M209.57,315.75v0a.37.37,0,0,1-.48.2,7.4,7.4,0,0,0-5.67.35.37.37,0,0,1-.37-.64,8.15,8.15,0,0,1,6.32-.39A.36.36,0,0,1,209.57,315.75Z" style="fill:#e0e0e0"></path><path d="M173.61,330.2c-.35.47-1,1.44-.87,2a29.73,29.73,0,0,1,1.34,6c.18,2.46-.74,7.18,1.74,10.43,2.19,2.86,4.12,3.48,5.82,3.74a4.3,4.3,0,0,0,3.82-1s1.47-1.41.76-2.43S173.61,330.2,173.61,330.2Z" style="fill:#37474f"></path><path d="M173.41,330.43a2.85,2.85,0,0,1,.22-1.36,10.28,10.28,0,0,0,.66-1.48c.16-.57.14-1.18.3-1.75s.62-1.14,1.21-1.13a.33.33,0,0,1,.14,0s0,.26,0,.34a2.82,2.82,0,0,0,.38,1.46c.23.51.53,1,.79,1.46a9.53,9.53,0,0,1,.66,1.59c.08.26.12.53.21.78s.37.48.37.6c0-1.27,0-2.73.85-2.75.56,0,1.6.72,2.75.85s2-.14,2.48,0,.22.73,0,2.05a21,21,0,0,0-.46,4.53c.13,1.21.3,2.45.52,3.64.83,4.57,2.58,6.87,2.28,9.35s-4.31,3.62-7.29,1.5c-5.08-3.62-4.18-7.45-4.2-10.27a18.41,18.41,0,0,0-.67-5.38c-.28-.92-.66-1.8-.89-2.73A9.44,9.44,0,0,1,173.41,330.43Z" style="fill:#BA68C8"></path><path d="M173.41,330.43a2.85,2.85,0,0,1,.22-1.36,10.28,10.28,0,0,0,.66-1.48c.16-.57.14-1.18.3-1.75s.62-1.14,1.21-1.13a.33.33,0,0,1,.14,0s0,.26,0,.34a2.82,2.82,0,0,0,.38,1.46c.23.51.53,1,.79,1.46a9.53,9.53,0,0,1,.66,1.59c.08.26.12.53.21.78s.37.48.37.6c0-1.27,0-2.73.85-2.75.56,0,1.6.72,2.75.85s2-.14,2.48,0,.22.73,0,2.05a21,21,0,0,0-.46,4.53c.13,1.21.3,2.45.52,3.64.83,4.57,2.58,6.87,2.28,9.35s-4.31,3.62-7.29,1.5c-5.08-3.62-4.18-7.45-4.2-10.27a18.41,18.41,0,0,0-.67-5.38c-.28-.92-.66-1.8-.89-2.73A9.44,9.44,0,0,1,173.41,330.43Z" style="opacity:0.4"></path><path d="M178,330.38c-.09-.25-.13-.52-.21-.78a9.53,9.53,0,0,0-.66-1.59c-.26-.49-.56-.95-.79-1.46a2.82,2.82,0,0,1-.38-1.46c0-.08,0-.34,0-.34a.33.33,0,0,0-.14,0c-.59,0-1,.56-1.21,1.13,0,0,0,0,0,.06a3.77,3.77,0,0,0,.22.59c.3.61.76,1.42,1,2a13,13,0,0,1,.9,2.8c.7,3.59.4,6.87,1.21,10.43a2.89,2.89,0,0,0,.61,1.34c.32.31.74.44,1,.12s.14-.74.08-1.06a49.31,49.31,0,0,1-.87-6.65c-.06-.84-.06-1.68-.16-2.51-.06-.5-.22-1.53-.32-2C178.32,330.86,178,330.53,178,330.38Z" style="opacity:0.15"></path><path d="M178.22,345.65c1.55.83,2.47.6,2.38-.9a7.34,7.34,0,0,0-1-3l4,0s-.16,2.74.66,3.37c.5.39,1.17-.26,1.54-1.09.62,1.79,1.13,3.16,1,4.59-.31,2.58-4.31,3.62-7.29,1.5-4.25-3-4.32-6.21-4.23-8.82C175.2,342.92,176.67,344.82,178.22,345.65Z" style="opacity:0.15"></path><path d="M184.35,331.28a22,22,0,0,0-.43,4.39c.13,1.21.3,2.45.52,3.64.14.78.31,1.49.49,2.15a2.13,2.13,0,0,1-.33,1.05c-.49.46-.72.42-1-.72-.36-1.29-.61-8.43.8-10.51Z" style="opacity:0.15"></path><path d="M184.58,342.08a.35.35,0,0,1-.38.2,18.82,18.82,0,0,0-5.27.1.37.37,0,0,1-.14-.72,18.53,18.53,0,0,1,5.51-.1.36.36,0,0,1,.32.41A.36.36,0,0,1,184.58,342.08Z" style="fill:#e0e0e0"></path><path d="M184.38,340.19a.36.36,0,0,1-.44.2,8.92,8.92,0,0,0-5.43.1.38.38,0,0,1-.48-.21.38.38,0,0,1,.21-.48,9.52,9.52,0,0,1,5.92-.11.36.36,0,0,1,.24.46Z" style="fill:#e0e0e0"></path><path d="M184.35,338.41a.37.37,0,0,1-.48.18,8.5,8.5,0,0,0-5.66-.2.36.36,0,0,1-.47-.22.37.37,0,0,1,.22-.47,9.12,9.12,0,0,1,6.2.21.37.37,0,0,1,.19.49Z" style="fill:#e0e0e0"></path><path d="M184.31,336.52h0a.38.38,0,0,1-.5.16,7.79,7.79,0,0,0-5.64-.36.37.37,0,0,1-.25-.7,8.49,8.49,0,0,1,6.23.41A.35.35,0,0,1,184.31,336.52Z" style="fill:#e0e0e0"></path><path d="M184.22,334.51a0,0,0,0,1,0,0,.35.35,0,0,1-.5.13c-2.5-1.46-5.72-.38-5.75-.37a.37.37,0,0,1-.24-.7c.15-.05,3.57-1.2,6.36.44A.36.36,0,0,1,184.22,334.51Z" style="fill:#e0e0e0"></path><path d="M184.3,332.79l0,0a.36.36,0,0,1-.5.14,7.34,7.34,0,0,0-5.66-.37.37.37,0,0,1-.29-.68,8.11,8.11,0,0,1,6.32.41A.37.37,0,0,1,184.3,332.79Z" style="fill:#e0e0e0"></path><path d="M174.68,240.48s-1,6.21-.15,17.62c.55,7.53.16,11.27.37,15.25,0,0,1.32,5,10.86,4.15s11-5.79,11-5.79l.66-6.21,5,8.08s3.3,2,10.38-2.23C218,268.25,219,266,219,266s-9.87-21.66-13.22-28.52c0,0-1.16-2.42-11.9-2.7S174.68,240.48,174.68,240.48Z" style="fill:#455a64"></path><path d="M197.38,265.5l.45-10.72s4.93-.38,8.58-5.83c0,0-.59,5.13-7.22,7.21l-.12,8.66,3.35,8.76Z" style="fill:#37474f"></path><path d="M172.28,212.14l3.06,15.69-1.54,18c8.72,4.08,26.56,5,35.33-2,0,0-.31-25-2.88-33.93-1.84-6.36-7.35-10.82-11.87-10.68-4.76.15-10.88.82-10.88.82s-5.7,1.11-9.11,2.06C173.77,203.49,171,205.62,172.28,212.14Z" style="fill:#BA68C8"></path><path d="M172.28,212.14l3.06,15.69-1.54,18c8.72,4.08,26.56,5,35.33-2,0,0-.31-25-2.88-33.93-1.84-6.36-7.35-10.82-11.87-10.68-4.76.15-10.88.82-10.88.82s-5.7,1.11-9.11,2.06C173.77,203.49,171,205.62,172.28,212.14Z" style="opacity:0.4"></path><path d="M181.23,180.15a7.69,7.69,0,1,0,4.48-9.9A7.69,7.69,0,0,0,181.23,180.15Z" style="fill:#263238"></path><path d="M171.77,182.2a2.58,2.58,0,0,1,.67-1.18c.41-.37.91-1,1.44-.59.35.3.44.95.63,1.34l2,4c.06.13.7,1.16.62,1.29l1-1.7L182.15,197a1.57,1.57,0,0,1-1.65-.62c-1-1.13-1.68-2.4-2.46-3.45s-2-2.5-2.84-3.58c-1.3-1.65-2.66-2.72-3.26-4.73a5.19,5.19,0,0,1-.25-1.87A3.12,3.12,0,0,1,171.77,182.2Z" style="fill:#263238"></path><path d="M178.83,188.89c-.38.49-1.45-.2-2.3-.61a2.3,2.3,0,0,0-3.37,1.94c-.2,2.52,2.75,4.62,4.5,4.52,3-.17,2.77-2.06,2.77-2.06l3.14,7.94c3.57,4,13.75,2,9.65-1.16l-1.35-3.66a18.26,18.26,0,0,0,3.7-1.18c1.87-1.06,2.53-3.1,2.32-5.47-.34-3.82-1-6.74-4.4-13.22-3.71-7.09-12.39-3.9-16,.8S178.83,188.89,178.83,188.89Z" style="fill:#ffa8a7"></path><path d="M191.4,174.4a.47.47,0,0,0-.19.12.71.71,0,0,0-.07.22,3.42,3.42,0,0,1-3,2.49,4.2,4.2,0,0,1-1.5,0,2.57,2.57,0,0,1-1.26-.76,3.17,3.17,0,0,1-2.2,2.28,4.8,4.8,0,0,1-3.25-.26,2.31,2.31,0,0,1-.57,2.75,4.43,4.43,0,0,1-1.45.7,2,2,0,0,1,.12,3.34,2.17,2.17,0,0,1,.83,1.13,7.61,7.61,0,0,1,.5,1.27c.06.42.32,1.85-.25,2.07-.24.1-1.78-1.11-2.61-1.44-.42-.16-.66-.84-.82-1.22a22.06,22.06,0,0,1-.81-2.37,4.76,4.76,0,0,0-.56-1.53,3.91,3.91,0,0,0-1.45-.78,2.86,2.86,0,0,1-1.3-1.09,5.12,5.12,0,0,1-.76-3.56,4.53,4.53,0,0,1,1.18-2.56,3,3,0,0,1,2.61-.89,4.52,4.52,0,0,1,1-4.41c1.31-1.37,2.95-1.38,4.69-1.27a5,5,0,0,1,3.19-2.9,4.73,4.73,0,0,1,4.05,1.17,4.64,4.64,0,0,1,4.19-.82,4.18,4.18,0,0,1,2.32,1.72,5.18,5.18,0,0,1,.56,1.19,4.65,4.65,0,0,1,.25,2.06,3.76,3.76,0,0,1-1,1.8A5.24,5.24,0,0,1,191.4,174.4Z" style="fill:#263238"></path><path d="M191.87,195.8a37,37,0,0,1-6.63.55A5.52,5.52,0,0,1,182.3,195a7.6,7.6,0,0,0,2.16,2c1.68,1,7.85-.1,7.85-.1Z" style="fill:#f28f8f"></path><path d="M187.17,184.26a.95.95,0,1,1-1.23-.59A1,1,0,0,1,187.17,184.26Z" style="fill:#263238"></path><path d="M184.93,181.54l-1.9,1.33a1.22,1.22,0,0,1,.3-1.66A1.13,1.13,0,0,1,184.93,181.54Z" style="fill:#263238"></path><path d="M188.2,190.18l2.26.51a1.2,1.2,0,0,1-1.43.89A1.13,1.13,0,0,1,188.2,190.18Z" style="fill:#f28f8f"></path><path d="M193.26,178.1l-2.28.52a1.12,1.12,0,0,1,.84-1.4A1.23,1.23,0,0,1,193.26,178.1Z" style="fill:#263238"></path><path d="M193.69,180.74a1,1,0,0,1-.54,1.25,1,1,0,1,1,.54-1.25Z" style="fill:#263238"></path><polygon points="189.71 182.98 192.01 188.2 194.44 186.2 189.71 182.98" style="fill:#f28f8f"></polygon><path d="M156.06,228.93c.67-2.38,12.81-20.38,15.54-24.81a13.23,13.23,0,0,1,4.07,12.31s-10.29,13.93-11.36,16.21a7.94,7.94,0,0,0-.24,2.48c0,1.16.21,10.52,1.3,14.69a3.12,3.12,0,0,0,1.31,1.79c1.7,1.13,2.37,2.27,3.64,3.67,1,1.1,1.85,1.39,1.71,1.73a1.69,1.69,0,0,1-2.18.7,11.8,11.8,0,0,1-2.42-1.4,15.44,15.44,0,0,0,2.4,4.4c2.34,3.05,2.4,4.89-2.51,4.79-3.08-.06-6.28-2.14-8.4-9a82.82,82.82,0,0,1-1.72-8.8c-.92-5.88-1.25-9.91-1.54-14A10,10,0,0,1,156.06,228.93Z" style="fill:#ffa8a7"></path><path d="M160.46,219.7c3-5,6.7-12.8,9.92-16,1.23-1.23,3.26-1.47,4-1.62,1.05,1,2.44,2,3.29,6.46,1,5.19-2.5,10.12-2.5,10.12L164.7,232.47c-.59,1.17-.25,10.94-.25,10.94a9.58,9.58,0,0,0-7.69,1.29s-1-6.64-1.44-10.45-.54-4.62,1.58-8.09" style="fill:#455a64"></path><path d="M157.62,251.21a57,57,0,0,0,1.41,7.63c1,3.64,2.24,6.47,5.81,7.52s5.56,0,6.76-1.37-.79-3.37-1.92-4.79a10.44,10.44,0,0,1-1.62-3.16s2.1,1.76,3.56,1,1.37-1.14.1-2.42-3-3.18-4.11-4.15a22.86,22.86,0,0,1-2.25-2.13S160.31,248.15,157.62,251.21Z" style="fill:#BA68C8"></path><path d="M157.62,251.21a57,57,0,0,0,1.41,7.63c1,3.64,2.24,6.47,5.81,7.52s5.56,0,6.76-1.37-.79-3.37-1.92-4.79a10.44,10.44,0,0,1-1.62-3.16s2.1,1.76,3.56,1,1.37-1.14.1-2.42-3-3.18-4.11-4.15a22.86,22.86,0,0,1-2.25-2.13S160.31,248.15,157.62,251.21Z" style="opacity:0.4"></path><path d="M157.62,251.21a5,5,0,0,1-.34-2.94s2.4-2.26,7.55-1.38a3.19,3.19,0,0,1,.53,2.48S160.52,248.61,157.62,251.21Z" style="fill:#37474f"></path></g></g></svg>
